name D:\school\WTK\thesis\model\3dpredictsim\Results\MidTarsalJoint\Fal_s1_bCst_PF_Natali2010_ls150_MT_k100_MTP_T5_d00_ig24.mot
datacolumns 128
datarows 4
range 0.00000000 0.03564048
endheader
time	pelvis_tilt	pelvis_list	pelvis_rotation	pelvis_tx	pelvis_ty	pelvis_tz	hip_flexion_l	hip_adduction_l	hip_rotation_l	hip_flexion_r	hip_adduction_r	hip_rotation_r	knee_angle_l	knee_angle_r	ankle_angle_l	ankle_angle_r	subtalar_angle_l	subtalar_angle_r	mtj_angle_l	mtj_angle_r	mtp_angle_l	mtp_angle_r	lumbar_extension	lumbar_bending	lumbar_rotation	arm_flex_l	arm_add_l	arm_rot_l	arm_flex_r	arm_add_r	arm_rot_r	elbow_flex_l	elbow_flex_r	pro_sup_l	pro_sup_r	glut_med1_l/activation	glut_med2_l/activation	glut_med3_l/activation	glut_min1_l/activation	glut_min2_l/activation	glut_min3_l/activation	semimem_l/activation	semiten_l/activation	bifemlh_l/activation	bifemsh_l/activation	sar_l/activation	add_long_l/activation	add_brev_l/activation	add_mag1_l/activation	add_mag2_l/activation	add_mag3_l/activation	tfl_l/activation	pect_l/activation	grac_l/activation	glut_max1_l/activation	glut_max2_l/activation	glut_max3_l/activation	iliacus_l/activation	psoas_l/activation	quad_fem_l/activation	gem_l/activation	peri_l/activation	rect_fem_l/activation	vas_med_l/activation	vas_int_l/activation	vas_lat_l/activation	med_gas_l/activation	lat_gas_l/activation	soleus_l/activation	tib_post_l/activation	flex_dig_l/activation	flex_hal_l/activation	tib_ant_l/activation	per_brev_l/activation	per_long_l/activation	per_tert_l/activation	ext_dig_l/activation	ext_hal_l/activation	ercspn_l/activation	intobl_l/activation	extobl_l/activation	glut_med1_r/activation	glut_med2_r/activation	glut_med3_r/activation	glut_min1_r/activation	glut_min2_r/activation	glut_min3_r/activation	semimem_r/activation	semiten_r/activation	bifemlh_r/activation	bifemsh_r/activation	sar_r/activation	add_long_r/activation	add_brev_r/activation	add_mag1_r/activation	add_mag2_r/activation	add_mag3_r/activation	tfl_r/activation	pect_r/activation	grac_r/activation	glut_max1_r/activation	glut_max2_r/activation	glut_max3_r/activation	iliacus_r/activation	psoas_r/activation	quad_fem_r/activation	gem_r/activation	peri_r/activation	rect_fem_r/activation	vas_med_r/activation	vas_int_r/activation	vas_lat_r/activation	med_gas_r/activation	lat_gas_r/activation	soleus_r/activation	tib_post_r/activation	flex_dig_r/activation	flex_hal_r/activation	tib_ant_r/activation	per_brev_r/activation	per_long_r/activation	per_tert_r/activation	ext_dig_r/activation	ext_hal_r/activation	ercspn_r/activation	intobl_r/activation	extobl_r/activation	
          0.00000000	         -2.92961724	         -2.51575159	          6.79492276	          0.00000000	          0.91799206	         -0.00254615	        -16.17760804	         -2.16469695	          7.63668436	         28.43325858	          3.75836747	         -2.22751497	        -11.71703197	         -9.13458291	         -4.92459470	          6.46434495	         12.16368991	         -8.11676065	          6.86811046	         -0.53668393	          7.72622449	          1.26063507	         -1.78861751	          0.67763249	         -2.72374485	          5.55637182	        -13.45593948	         16.61898458	         -8.41958730	        -13.48289899	          6.10348495	         42.02428792	         16.07063190	         86.51662706	         86.51662706	          0.17285749	          0.08596486	          0.06250340	          0.19756622	          0.14835511	          0.09398651	          0.05006198	          0.05005606	          0.05001546	          0.05000133	          0.09464231	          0.05990645	          0.05659588	          0.05990034	          0.05989946	          0.05990008	          0.25307650	          0.05006507	          0.05989536	          0.05013224	          0.05018267	          0.05989837	          0.38205839	          0.57823298	          0.05990362	          0.05992174	          0.05024422	          0.32325763	          0.16474161	          0.16573893	          0.15235703	          0.21387675	          0.28254588	          0.26405805	          0.17212494	          0.13797479	          0.19118042	          0.05000035	          0.05000098	          0.13927969	          0.05000085	          0.05000066	          0.05000092	          0.05000036	          0.07176049	          0.07696385	          0.05000007	          0.05000021	          0.09782368	          0.05000023	          0.05000026	          0.05000033	          0.20480599	          0.08835684	          0.12735520	          0.08025398	          0.07100976	          0.12318005	          0.26155495	          0.25761770	          0.17499142	          0.09656250	          0.05000141	          0.07181358	          0.12973179	          0.05010604	          0.11261245	          0.12949155	          0.05000128	          0.07175893	          0.52716822	          0.21215303	          0.10334920	          0.05990268	          0.08564597	          0.08330856	          0.07243846	          0.06826282	          0.07175996	          0.06269506	          0.05990016	          0.05061439	          0.05989855	          0.46220402	          0.28309509	          0.23607943	          0.09902274	          0.41333227	          0.21134043	          0.05000002	          0.10549490	          0.09241329	
          0.01188016	         -2.93017637	         -2.60268013	          7.09320351	          0.01858552	          0.91688072	         -0.00240987	        -16.50636666	         -2.56426175	          7.51461697	         27.67191047	          4.03339667	         -1.96389332	        -12.79360431	         -9.79385337	         -5.41498075	          5.86652569	         13.19952296	         -8.46888782	          4.93377648	         -0.72639276	         10.52484023	          1.44668603	         -1.53318414	          0.86896065	         -2.80421178	          5.14712044	        -13.45816663	         16.89194454	         -9.44144440	        -13.47023418	          6.12923191	         43.22444816	         15.67953045	         86.51662706	         86.51662706	          0.27897700	          0.07176039	          0.05990070	          0.31137401	          0.12383619	          0.07845324	          0.05000203	          0.05000034	          0.05000029	          0.05000361	          0.07900963	          0.05000549	          0.05000045	          0.05000064	          0.05000102	          0.05000069	          0.21124987	          0.05006312	          0.05000204	          0.05000667	          0.05000187	          0.05000091	          0.31891304	          0.54854135	          0.05000318	          0.05001915	          0.05572107	          0.26983056	          0.13751483	          0.13834749	          0.12717702	          0.17852779	          0.23584749	          0.22041525	          0.14367665	          0.11517086	          0.15958277	          0.07273930	          0.08335181	          0.15545857	          0.05000109	          0.10826147	          0.05001246	          0.05016864	          0.05990012	          0.06424349	          0.23330562	          0.23754807	          0.28370765	          0.34171071	          0.23176642	          0.20087491	          0.17095639	          0.07375635	          0.10630652	          0.08273720	          0.05928054	          0.10282133	          0.21832601	          0.21503963	          0.14606988	          0.12598255	          0.05000080	          0.05994589	          0.10829118	          0.05000106	          0.13477337	          0.10809162	          0.05985892	          0.05989903	          0.44003938	          0.17708925	          0.20208221	          0.05000219	          0.07149082	          0.06953973	          0.06046619	          0.05698058	          0.05989976	          0.05233302	          0.05000019	          0.05000079	          0.05000085	          0.52738299	          0.37157549	          0.19706144	          0.37385588	          0.52219687	          0.24030566	          0.05392064	          0.12448668	          0.07713949	
          0.02376032	         -2.92981613	         -2.69027013	          7.34775623	          0.03724466	          0.91577784	         -0.00224476	        -16.78637374	         -2.95711528	          7.39682548	         26.91706411	          4.27985449	         -1.70822600	        -13.92382435	        -10.44552946	         -5.95813997	          5.22308542	         14.19657967	         -8.81529078	          2.85236377	         -0.64447894	         13.42569337	          1.49824905	         -1.28575193	          1.07049123	         -2.87324265	          4.69505074	        -13.46621022	         17.11030273	        -10.42760504	        -13.46143985	          6.20754087	         44.36105133	         15.31315767	         86.51662706	         86.51662706	          0.23286895	          0.05990029	          0.05000184	          0.25991138	          0.10336909	          0.06548691	          0.05000308	          0.05000045	          0.05000042	          0.05000026	          0.06595149	          0.05001542	          0.05001169	          0.05009792	          0.05010498	          0.08012880	          0.17633527	          0.05001644	          0.05000171	          0.05006047	          0.05005509	          0.05009691	          0.26620405	          0.49155774	          0.05000403	          0.05001771	          0.05000072	          0.22523371	          0.14726745	          0.14494373	          0.12098249	          0.14902121	          0.19686728	          0.18398561	          0.11993021	          0.09613589	          0.13320749	          0.13484680	          0.12661951	          0.12979580	          0.10388708	          0.16115949	          0.14286559	          0.07046445	          0.05000008	          0.05362553	          0.33449689	          0.34804898	          0.37684426	          0.28523444	          0.23316759	          0.25846718	          0.14270128	          0.06156790	          0.08873664	          0.06906288	          0.05000170	          0.08582741	          0.18224181	          0.17949887	          0.12192869	          0.14669242	          0.05000270	          0.05003916	          0.09039377	          0.21218847	          0.18989589	          0.13918605	          0.05000022	          0.05000029	          0.36731099	          0.14782065	          0.16868356	          0.05000036	          0.08595590	          0.09323679	          0.07368217	          0.05000009	          0.05000025	          0.05000003	          0.05000069	          0.05000091	          0.05000092	          0.61151917	          0.38127807	          0.21431307	          0.44445927	          0.54510382	          0.33776729	          0.07617644	          0.10391188	          0.06439010	
          0.03564048	         -2.92887605	         -2.77968649	          7.56250511	          0.05576034	          0.91478416	         -0.00204505	        -16.95959121	         -3.33151337	          7.27546020	         26.25551943	          4.54590942	         -1.45932619	        -15.18264861	        -11.22431503	         -6.62009688	          4.53682831	         15.12130525	         -9.16666363	          0.80186167	         -0.69400157	         16.09622807	          1.52946293	         -1.06111274	          1.28548941	         -2.93410805	          4.24968732	        -13.47772624	         17.31824811	        -11.34049304	        -13.45443507	          6.31114291	         45.38057007	         14.96243498	         86.51662706	         86.51662706	          0.23373653	          0.05000057	          0.05000017	          0.21695519	          0.08628474	          0.05466365	          0.05000235	          0.05000039	          0.05000047	          0.05000019	          0.05505175	          0.05000179	          0.14540591	          0.05000267	          0.05012938	          0.15047363	          0.14719124	          0.05001366	          0.05000057	          0.05000396	          0.05000278	          0.05000245	          0.22220664	          0.47258290	          0.05000022	          0.05000102	          0.05000038	          0.18800770	          0.12292756	          0.12098790	          0.10098689	          0.12439140	          0.16432964	          0.15357697	          0.10010856	          0.08024702	          0.11119149	          0.18504178	          0.12338249	          0.11287937	          0.23436067	          0.21500426	          0.11925808	          0.09990766	          0.05000008	          0.05000008	          0.41827627	          0.40817637	          0.41891669	          0.23809535	          0.19463736	          0.21657628	          0.11911631	          0.08341130	          0.08315055	          0.05764877	          0.05000095	          0.07164239	          0.15212306	          0.18876875	          0.20462274	          0.18810972	          0.05000072	          0.05002335	          0.10591275	          0.26377559	          0.23218291	          0.19979661	          0.05000028	          0.05000028	          0.30660298	          0.12338949	          0.14080683	          0.05000018	          0.14744136	          0.15467728	          0.12541932	          0.05000009	          0.05000017	          0.05000002	          0.05000005	          0.05000036	          0.05000031	          0.64728394	          0.31826193	          0.17889219	          0.53245880	          0.58099474	          0.36345030	          0.08592149	          0.08673762	          0.05374792	
